<?xml version="1.0" encoding="UTF-8" standalone="no"?>
<!-- Created with Inkscape (http://www.inkscape.org/) -->

<svg
   xmlns:dc="http://purl.org/dc/elements/1.1/"
   xmlns:cc="http://creativecommons.org/ns#"
   xmlns:rdf="http://www.w3.org/1999/02/22-rdf-syntax-ns#"
   xmlns:svg="http://www.w3.org/2000/svg"
   xmlns="http://www.w3.org/2000/svg"
   xmlns:sodipodi="http://sodipodi.sourceforge.net/DTD/sodipodi-0.dtd"
   xmlns:inkscape="http://www.inkscape.org/namespaces/inkscape"
   width="75.362152mm"
   height="60.362148mm"
   viewBox="0 0 75.362152 60.362149"
   version="1.1"
   id="svg8"
   inkscape:version="0.92.2 (5c3e80d, 2017-08-06)"
   sodipodi:docname="osa_icon.svg"
   inkscape:export-filename="osa_icon_32.png"
   inkscape:export-xdpi="10.785254"
   inkscape:export-ydpi="10.785254">
  <defs
     id="defs2" />
  <sodipodi:namedview
     id="base"
     pagecolor="#ffffff"
     bordercolor="#666666"
     borderopacity="1.0"
     inkscape:pageopacity="0.0"
     inkscape:pageshadow="2"
     inkscape:zoom="0.98994949"
     inkscape:cx="-303.74229"
     inkscape:cy="142.17892"
     inkscape:document-units="mm"
     inkscape:current-layer="layer1"
     showgrid="false"
     fit-margin-top="0"
     fit-margin-left="0"
     fit-margin-right="0"
     fit-margin-bottom="0"
     inkscape:window-width="1795"
     inkscape:window-height="1057"
     inkscape:window-x="2037"
     inkscape:window-y="-8"
     inkscape:window-maximized="1"
     units="in" />
  <metadata
     id="metadata5">
    <rdf:RDF>
      <cc:Work
         rdf:about="">
        <dc:format>image/svg+xml</dc:format>
        <dc:type
           rdf:resource="http://purl.org/dc/dcmitype/StillImage" />
        <dc:title></dc:title>
      </cc:Work>
    </rdf:RDF>
  </metadata>
  <g
     inkscape:label="Layer 1"
     inkscape:groupmode="layer"
     id="layer1"
     transform="translate(-88.562972,-204.57834)">
    <g
       transform="matrix(0.35277777,0,0,-0.35277777,88.562972,256.37252)"
       inkscape:label="ink_ext_XXXXXX"
       id="g823">
      <g
         transform="scale(0.1)"
         id="g825">
        <path
           inkscape:connector-curvature="0"
           id="path827"
           style="fill:#36449f;fill-opacity:1;fill-rule:nonzero;stroke:none"
           d="m 2053.41,1151.24 h 11.08 c 2.38,0 4.72,0.08 7,0.24 2.29,0.17 4.28,0.63 6.02,1.4 1.73,0.75 3.14,1.95 4.25,3.57 1.07,1.63 1.62,3.85 1.62,6.68 0,2.39 -0.49,4.32 -1.48,5.79 -0.97,1.46 -2.22,2.57 -3.73,3.34 -1.54,0.76 -3.22,1.24 -5.05,1.46 -1.86,0.22 -3.7,0.33 -5.53,0.33 h -14.18 z m -10.75,31.6 h 26.72 c 16.49,0 24.75,-6.73 24.75,-20.19 0,-6.41 -1.79,-11.11 -5.38,-14.09 -3.57,-2.99 -8.04,-4.76 -13.35,-5.3 l 20.35,-31.28 h -11.57 l -19.2,30.47 h -11.57 v -30.47 h -10.75 z m -26.71,-35.51 c 0,-7.38 1.3,-14.23 3.89,-20.53 2.63,-6.3 6.15,-11.75 10.61,-16.37 4.44,-4.61 9.72,-8.25 15.79,-10.91 6.07,-2.66 12.6,-3.99 19.55,-3.99 6.93,0 13.44,1.33 19.46,3.99 6.02,2.66 11.28,6.3 15.79,10.91 4.52,4.62 8.08,10.07 10.68,16.37 2.6,6.3 3.91,13.15 3.91,20.53 0,7.28 -1.31,14.1 -3.91,20.44 -2.6,6.36 -6.16,11.84 -10.68,16.46 -4.51,4.61 -9.77,8.25 -15.79,10.91 -6.02,2.66 -12.53,4 -19.46,4 -6.95,0 -13.48,-1.34 -19.55,-4 -6.07,-2.66 -11.35,-6.3 -15.79,-10.91 -4.46,-4.62 -7.98,-10.1 -10.61,-16.46 -2.59,-6.34 -3.89,-13.16 -3.89,-20.44 z m -10.75,0 c 0,8.58 1.59,16.59 4.8,24.03 3.19,7.44 7.58,13.85 13.1,19.22 5.55,5.38 11.98,9.61 19.3,12.71 7.34,3.09 15.13,4.64 23.39,4.64 8.24,0 16.04,-1.55 23.37,-4.64 7.33,-3.1 13.77,-7.33 19.31,-12.71 5.53,-5.37 9.9,-11.78 13.12,-19.22 3.2,-7.44 4.8,-15.45 4.8,-24.03 0,-8.69 -1.6,-16.72 -4.8,-24.1 -3.22,-7.4 -7.59,-13.77 -13.12,-19.14 -5.54,-5.39 -11.98,-9.61 -19.31,-12.71 -7.33,-3.09 -15.13,-4.65 -23.37,-4.65 -8.26,0 -16.05,1.56 -23.39,4.65 -7.32,3.1 -13.75,7.32 -19.3,12.71 -5.52,5.37 -9.91,11.74 -13.1,19.14 -3.21,7.38 -4.8,15.41 -4.8,24.1" />
        <path
           inkscape:connector-curvature="0"
           id="path829"
           style="fill:#36449f;fill-opacity:1;fill-rule:nonzero;stroke:none"
           d="M 426.797,459.137 C 246.078,459.441 100.648,609.121 100.273,788.723 100.398,969.461 244.059,1118.06 426.797,1118.45 609.469,1118.06 753.199,969.461 753.199,788.723 752.953,609.121 607.234,459.441 426.797,459.137 Z m 0,753.143 C 193.32,1212.28 0,1022.22 0,787.758 0,551.883 193.375,365.641 426.797,365.25 c 233.461,0.391 426.578,186.633 426.578,422.508 0,234.462 -193.031,424.522 -426.578,424.522" />
        <path
           inkscape:connector-curvature="0"
           id="path831"
           style="fill:#36449f;fill-opacity:1;fill-rule:nonzero;stroke:none"
           d="m 1203.2,852.379 -53.61,23.711 c -55.14,24.719 -123.91,56.445 -123.55,121.902 0.14,70.948 59.42,120.298 128.82,120.458 67.05,-0.34 103.3,-30.49 135.21,-85.49 l 2.64,-4.61 4.64,2.81 75.77,48.79 -2.23,4.16 c -43.68,80.92 -121.91,128.27 -213.69,128.17 -122.2,-0.23 -231.247,-82.35 -231.516,-211.14 0,-118.882 84.686,-169.007 178.986,-211.644 l 49.51,-21.504 c 75.45,-34.637 146.09,-65.406 145.98,-156.187 -0.15,-88.125 -76.89,-152.668 -161.17,-152.668 -84.06,0 -145.427,65.168 -156.947,145.722 l -0.828,5.911 -98.262,-27.54 0.953,-4.66 c 26.02,-127.625 125.134,-213.574 257.274,-213.32 143.05,0.285 258.94,110.586 259.36,255.027 0,131.821 -92.08,186.239 -197.34,232.102" />
        <path
           inkscape:connector-curvature="0"
           id="path833"
           style="fill:#36449f;fill-opacity:1;fill-rule:nonzero;stroke:none"
           d="M 1782.6,1225.31 1419.33,369.801 h 108.96 l 252.37,588.695 245.44,-588.695 h 110.15 L 1782.6,1225.31" />
        <path
           inkscape:connector-curvature="0"
           id="path835"
           style="fill:#36449f;fill-opacity:1;fill-rule:nonzero;stroke:none"
           d="m 1906.54,625.457 -210.28,92.25 V 534.148 l 210.28,91.309 v 0" />
        <path
           inkscape:connector-curvature="0"
           id="path837"
           style="fill:#36449f;fill-opacity:1;fill-rule:nonzero;stroke:none"
           d="M 54.9414,201.02 H 2.88672 v 26.398 H 137.23 V 201.02 H 85.1758 V 57.5703 H 54.9414 V 201.02" />
        <path
           inkscape:connector-curvature="0"
           id="path839"
           style="fill:#36449f;fill-opacity:1;fill-rule:nonzero;stroke:none"
           d="m 217.598,176.078 c 7.515,0 13.957,-1.328 19.312,-3.957 5.36,-2.641 9.75,-6.121 13.195,-10.43 3.442,-4.32 5.954,-9.281 7.555,-14.89 1.598,-5.59 2.403,-11.352 2.403,-17.25 V 57.5703 h -28.79 v 63.3277 c 0,3.364 -0.238,6.84 -0.722,10.43 -0.477,3.613 -1.481,6.883 -2.996,9.844 -1.524,2.949 -3.684,5.398 -6.477,7.308 -2.801,1.93 -6.515,2.879 -11.156,2.879 -4.641,0 -8.637,-0.871 -11.996,-2.629 -3.356,-1.761 -6.156,-4.121 -8.395,-7.082 -2.242,-2.957 -3.922,-6.269 -5.035,-9.949 -1.121,-3.679 -1.683,-7.437 -1.683,-11.269 V 57.5703 h -28.79 V 238.922 h 28.79 v -82.281 h 0.476 c 1.125,2.39 2.766,4.75 4.926,7.078 2.156,2.312 4.676,4.39 7.555,6.242 2.878,1.82 6.156,3.32 9.835,4.43 3.672,1.121 7.676,1.687 11.993,1.687" />
        <path
           inkscape:connector-curvature="0"
           id="path841"
           style="fill:#36449f;fill-opacity:1;fill-rule:nonzero;stroke:none"
           d="m 368.734,126.648 c 0,3.692 -0.527,7.204 -1.566,10.563 -1.039,3.359 -2.676,6.309 -4.91,8.879 -2.238,2.558 -5.078,4.59 -8.512,6.109 -3.449,1.52 -7.484,2.289 -12.121,2.289 -8.637,0 -15.957,-2.597 -21.953,-7.797 -5.996,-5.211 -9.317,-11.871 -9.949,-20.043 z m 28.786,-12.949 c 0,-1.277 0,-2.558 0,-3.84 0,-1.289 -0.082,-2.558 -0.239,-3.828 h -87.558 c 0.316,-4.16 1.394,-7.9724 3.238,-11.3904 1.84,-3.4492 4.273,-6.4023 7.316,-8.8906 3.036,-2.4687 6.469,-4.4297 10.309,-5.8711 3.844,-1.4492 7.832,-2.168 11.996,-2.168 7.191,0 13.273,1.3204 18.234,3.9688 4.954,2.6289 9.032,6.2695 12.235,10.9219 L 392.242,77.2305 C 380.883,61.8906 364.414,54.2109 342.82,54.2109 c -8.953,0 -17.195,1.3985 -24.707,4.1875 -7.523,2.8008 -14.031,6.7618 -19.55,11.8829 -5.52,5.1171 -9.836,11.3984 -12.958,18.8398 -3.117,7.418 -4.671,15.8669 -4.671,25.3089 0,9.261 1.554,17.711 4.671,25.308 3.122,7.59 7.399,14.063 12.836,19.422 5.438,5.36 11.875,9.512 19.313,12.481 7.437,2.961 15.473,4.437 24.109,4.437 8,0 15.387,-1.328 22.196,-3.957 6.793,-2.641 12.675,-6.57 17.625,-11.762 4.957,-5.187 8.839,-11.668 11.636,-19.429 2.797,-7.758 4.2,-16.828 4.2,-27.231" />
        <path
           inkscape:connector-curvature="0"
           id="path843"
           style="fill:#36449f;fill-opacity:1;fill-rule:nonzero;stroke:none"
           d="m 506.672,142.98 c 0,-9.128 1.394,-17.48 4.195,-25.082 2.793,-7.597 6.801,-14.187 11.992,-19.7964 5.192,-5.5899 11.36,-9.9532 18.473,-13.0625 7.113,-3.1172 14.996,-4.6875 23.633,-4.6875 8.64,0 16.551,1.5703 23.75,4.6875 7.203,3.1093 13.394,7.4726 18.594,13.0625 5.195,5.6094 9.191,12.1994 11.992,19.7964 2.793,7.602 4.199,15.954 4.199,25.082 0,8.79 -1.406,16.95 -4.199,24.469 -2.801,7.512 -6.758,14.051 -11.867,19.672 -5.125,5.59 -11.282,9.988 -18.485,13.18 -7.195,3.187 -15.187,4.801 -23.984,4.801 -8.797,0 -16.75,-1.614 -23.871,-4.801 -7.114,-3.192 -13.239,-7.59 -18.352,-13.18 -5.121,-5.621 -9.082,-12.16 -11.875,-19.672 -2.801,-7.519 -4.195,-15.679 -4.195,-24.469 z m -32.867,0 c 0,13.579 2.281,25.86 6.84,36.821 4.55,10.949 10.871,20.269 18.949,27.949 8.074,7.672 17.672,13.59 28.789,17.746 11.113,4.168 23.226,6.231 36.344,6.231 13.269,0 25.503,-2.063 36.703,-6.231 11.191,-4.156 20.871,-10.074 29.023,-17.746 8.16,-7.68 14.52,-17 19.074,-27.949 4.559,-10.961 6.84,-23.242 6.84,-36.821 0,-13.289 -2.281,-25.39 -6.84,-36.359 C 644.973,95.6719 638.613,86.2305 630.453,78.3203 622.301,70.3984 612.621,64.25 601.43,59.8516 590.23,55.4492 577.996,53.25 564.727,53.25 c -13.118,0 -25.231,2.1992 -36.344,6.6016 -11.117,4.3984 -20.715,10.5468 -28.789,18.4687 -8.078,7.9102 -14.399,17.3516 -18.949,28.3007 -4.559,10.969 -6.84,23.07 -6.84,36.359" />
        <path
           inkscape:connector-curvature="0"
           id="path845"
           style="fill:#36449f;fill-opacity:1;fill-rule:nonzero;stroke:none"
           d="m 772.961,115.621 c 0,4.481 -0.688,8.918 -2.043,13.309 -1.363,4.398 -3.398,8.359 -6.117,11.89 -2.723,3.508 -6.156,6.36 -10.313,8.5 -4.16,2.16 -9.039,3.258 -14.64,3.258 -5.274,0 -10,-1.137 -14.149,-3.367 -4.16,-2.242 -7.715,-5.133 -10.679,-8.641 -2.957,-3.519 -5.2,-7.519 -6.715,-12 -1.524,-4.468 -2.282,-8.941 -2.282,-13.441 0,-4.469 0.758,-8.91 2.282,-13.309 1.515,-4.3903 3.758,-8.3512 6.715,-11.8591 2.964,-3.5312 6.519,-6.3711 10.679,-8.539 4.149,-2.1524 8.875,-3.2305 14.149,-3.2305 5.601,0 10.48,1.1172 14.64,3.3594 4.157,2.25 7.59,5.1406 10.313,8.6406 2.719,3.5078 4.754,7.5195 6.117,11.9996 1.355,4.481 2.043,8.95 2.043,13.43 z m -67.18,57.098 v -16.078 h 0.727 c 1.437,2.238 3.312,4.507 5.637,6.828 2.32,2.332 5.152,4.41 8.515,6.25 3.36,1.832 7.156,3.351 11.391,4.551 4.238,1.21 9,1.808 14.277,1.808 8.16,0 15.668,-1.547 22.551,-4.687 6.879,-3.11 12.797,-7.403 17.754,-12.832 4.949,-5.438 8.793,-11.84 11.512,-19.188 2.718,-7.351 4.078,-15.269 4.078,-23.75 0,-8.473 -1.321,-16.4296 -3.957,-23.8593 -2.637,-7.4531 -6.395,-13.9219 -11.274,-19.4414 -4.883,-5.5117 -10.801,-9.9101 -17.754,-13.1914 -6.957,-3.2773 -14.84,-4.918 -23.629,-4.918 -8.16,0 -15.636,1.6797 -22.433,5.0508 -6.797,3.3399 -12.039,7.9102 -15.715,13.6602 H 706.98 V 0 h -28.789 v 172.719 h 27.59" />
        <path
           inkscape:connector-curvature="0"
           id="path847"
           style="fill:#36449f;fill-opacity:1;fill-rule:nonzero;stroke:none"
           d="m 815.898,149.691 v 23.028 h 20.153 v 33.34 h 28.304 v -33.34 h 28.79 v -23.028 h -28.79 V 96.1914 c 0,-5.1328 0.922,-9.3633 2.762,-12.7226 1.836,-3.3594 5.953,-5.0391 12.356,-5.0391 1.918,0 3.996,0.2109 6.234,0.6016 2.238,0.4101 4.234,1.0078 5.996,1.8085 l 0.965,-22.5507 c -2.563,-0.9688 -5.602,-1.7188 -9.117,-2.2891 -3.516,-0.5508 -6.879,-0.8398 -10.078,-0.8398 -7.672,0 -13.91,1.0781 -18.711,3.2382 -4.801,2.1602 -8.602,5.1211 -11.395,8.8829 -2.797,3.7578 -4.719,8.0781 -5.762,12.957 -1.039,4.8711 -1.554,10.1211 -1.554,15.7031 v 53.7496 h -20.153" />
        <path
           inkscape:connector-curvature="0"
           id="path849"
           style="fill:#36449f;fill-opacity:1;fill-rule:nonzero;stroke:none"
           d="M 916.895,172.719 H 945.68 V 57.5703 h -28.785 z m -4.082,39.09 c 0,4.64 1.718,8.679 5.16,12.121 3.437,3.449 7.797,5.16 13.078,5.16 5.273,0 9.711,-1.641 13.308,-4.91 3.602,-3.282 5.403,-7.41 5.403,-12.371 0,-4.957 -1.801,-9.059 -5.403,-12.348 -3.597,-3.281 -8.035,-4.91 -13.308,-4.91 -5.281,0 -9.641,1.719 -13.078,5.16 -3.442,3.43 -5.16,7.469 -5.16,12.098" />
        <path
           inkscape:connector-curvature="0"
           id="path851"
           style="fill:#36449f;fill-opacity:1;fill-rule:nonzero;stroke:none"
           d="m 1053.39,140.82 c -2.25,3.18 -5.6,5.871 -10.08,8.032 -4.47,2.16 -9.03,3.238 -13.68,3.238 -5.27,0 -9.91,-1.078 -13.91,-3.238 -4,-2.161 -7.31,-5 -9.95,-8.524 -2.64,-3.519 -4.61,-7.476 -5.883,-11.879 -1.278,-4.39 -1.914,-8.82 -1.914,-13.32 0,-4.469 0.675,-8.91 2.037,-13.309 1.36,-4.3903 3.4,-8.3512 6.11,-11.8591 2.73,-3.5312 6.12,-6.3711 10.2,-8.539 4.09,-2.1524 8.84,-3.2305 14.28,-3.2305 4.48,0 8.95,0.8867 13.43,2.6484 4.48,1.7618 8.07,4.3086 10.79,7.6719 l 18,-18.2304 c -4.8,-5.1211 -10.92,-9.0821 -18.35,-11.8829 -7.44,-2.789 -15.48,-4.1875 -24.11,-4.1875 -8.48,0 -16.52,1.3594 -24.11,4.0782 -7.602,2.6992 -14.242,6.7226 -19.91,11.9922 -5.688,5.2695 -10.164,11.6679 -13.442,19.1875 -3.281,7.5195 -4.91,16.0702 -4.91,25.6602 0,9.293 1.629,17.68 4.91,25.199 3.278,7.524 7.715,13.91 13.317,19.203 5.598,5.27 12.113,9.34 19.555,12.231 7.44,2.879 15.38,4.316 23.86,4.316 8.48,0 16.68,-1.598 24.59,-4.797 7.92,-3.211 14.2,-7.601 18.84,-13.203 l -19.67,-17.258" />
        <path
           inkscape:connector-curvature="0"
           id="path853"
           style="fill:#36449f;fill-opacity:1;fill-rule:nonzero;stroke:none"
           d="m 1165.18,110.102 h -6.49 c -4.63,0 -9.52,-0.204 -14.63,-0.59 -5.11,-0.41 -9.84,-1.293 -14.15,-2.641 -4.32,-1.359 -7.91,-3.293 -10.81,-5.762 -2.87,-2.4879 -4.31,-5.8785 -4.31,-10.1871 0,-2.7305 0.61,-5 1.81,-6.8516 1.18,-1.832 2.75,-3.3203 4.67,-4.4219 1.91,-1.1367 4.07,-1.9375 6.47,-2.4179 2.42,-0.461 4.82,-0.711 7.22,-0.711 9.89,0 17.41,2.6524 22.53,7.9219 5.14,5.2695 7.69,12.4805 7.69,21.5896 z m 0.48,-37.9028 h -0.72 c -2.89,-5.1094 -7.54,-9.3086 -13.9,-12.5898 -6.43,-3.2813 -13.71,-4.9297 -21.85,-4.9297 -4.65,0 -9.47,0.6016 -14.52,1.8086 -5.03,1.2031 -9.67,3.1914 -13.91,6 -4.24,2.793 -7.75,6.4726 -10.55,11.0234 -2.8,4.5664 -4.2,10.1992 -4.2,16.9297 0,8.6172 2.44,15.4886 7.32,20.6176 4.87,5.113 11.14,9.043 18.82,11.761 7.69,2.711 16.21,4.52 25.56,5.391 9.34,0.879 18.51,1.34 27.47,1.34 v 2.871 c 0,7.199 -2.59,12.508 -7.8,15.949 -5.21,3.43 -11.4,5.149 -18.59,5.149 -6.08,0 -11.92,-1.282 -17.52,-3.829 -5.61,-2.55 -10.23,-5.691 -13.91,-9.363 l -14.87,17.524 c 6.55,6.058 14.11,10.617 22.68,13.66 8.54,3.047 17.22,4.566 26.02,4.566 10.23,0 18.65,-1.437 25.3,-4.316 6.64,-2.891 11.88,-6.641 15.71,-11.274 3.85,-4.648 6.52,-9.847 8.05,-15.597 1.5,-5.762 2.27,-11.52 2.27,-17.282 V 57.5703 h -26.86 v 14.6289" />
        <path
           inkscape:connector-curvature="0"
           id="path855"
           style="fill:#36449f;fill-opacity:1;fill-rule:nonzero;stroke:none"
           d="m 1224.18,57.5703 h 28.8008 v 181.352 H 1224.18 Z" />
        <path
           inkscape:connector-curvature="0"
           id="path857"
           style="fill:#36449f;fill-opacity:1;fill-rule:nonzero;stroke:none"
           d="m 1431.2,191.898 c -3.2,4.161 -7.69,7.653 -13.54,10.454 -5.85,2.789 -11.71,4.187 -17.63,4.187 -3.52,0 -7.05,-0.449 -10.57,-1.32 -3.5,-0.879 -6.71,-2.239 -9.6,-4.078 -2.87,-1.852 -5.23,-4.243 -7.07,-7.2 -1.82,-2.953 -2.75,-6.511 -2.75,-10.671 0,-3.848 0.81,-7.122 2.39,-9.84 1.61,-2.719 3.81,-5.032 6.6,-6.95 2.8,-1.921 6.19,-3.601 10.21,-5.039 3.98,-1.429 8.39,-2.882 13.17,-4.312 5.44,-1.77 11.1,-3.758 16.94,-6.008 5.82,-2.242 11.18,-5.191 16.04,-8.871 4.89,-3.691 8.89,-8.328 12,-13.91 3.12,-5.61 4.69,-12.559 4.69,-20.871 0,-9.1174 -1.69,-17.0706 -5.03,-23.8792 -3.36,-6.789 -7.84,-12.4414 -13.44,-16.8984 -5.61,-4.4922 -12.16,-7.8516 -19.66,-10.0703 -7.53,-2.25 -15.44,-3.3711 -23.75,-3.3711 -11.05,0 -21.84,2.0313 -32.4,6.1211 -10.55,4.0703 -19.19,10.1172 -25.92,18.1094 l 21.61,20.1406 c 4.15,-5.75 9.7,-10.3125 16.66,-13.6719 6.97,-3.3594 13.81,-5.039 20.5,-5.039 3.54,0 7.14,0.4492 10.81,1.3281 3.69,0.8711 7.01,2.3633 9.97,4.4414 2.95,2.082 5.35,4.6797 7.18,7.8008 1.83,3.1093 2.78,6.9883 2.78,11.6215 0,4.468 -1.07,8.207 -3.13,11.16 -2.09,2.957 -4.89,5.519 -8.41,7.679 -3.5,2.161 -7.66,4.039 -12.47,5.629 -4.8,1.602 -9.84,3.282 -15.11,5.039 -5.11,1.602 -10.23,3.532 -15.37,5.762 -5.1,2.238 -9.69,5.199 -13.78,8.879 -4.08,3.68 -7.4,8.18 -9.95,13.539 -2.56,5.371 -3.84,12.051 -3.84,20.039 0,8.652 1.81,16.082 5.4,22.313 3.6,6.25 8.3,11.398 14.16,15.48 5.82,4.078 12.46,7.106 19.9,9.106 7.43,2.003 14.99,3 22.67,3 8.64,0 17.4,-1.516 26.27,-4.551 8.87,-3.047 16.6,-7.606 23.15,-13.676 l -19.68,-21.602" />
        <path
           inkscape:connector-curvature="0"
           id="path859"
           style="fill:#36449f;fill-opacity:1;fill-rule:nonzero;stroke:none"
           d="m 1497.43,115.621 c 0,-4.48 0.67,-8.949 2.04,-13.43 1.34,-4.4801 3.38,-8.4918 6.11,-11.9996 2.7,-3.5 6.16,-6.3906 10.3,-8.6406 4.16,-2.2422 9.13,-3.3594 14.87,-3.3594 5.77,0 10.72,1.1172 14.89,3.3594 4.16,2.25 7.58,5.1406 10.32,8.6406 2.7,3.5078 4.74,7.5195 6.11,11.9996 1.36,4.481 2.04,8.95 2.04,13.43 0,4.481 -0.68,8.918 -2.04,13.309 -1.37,4.398 -3.41,8.359 -6.11,11.89 -2.74,3.508 -6.16,6.36 -10.32,8.5 -4.17,2.16 -9.12,3.258 -14.89,3.258 -5.74,0 -10.71,-1.098 -14.87,-3.258 -4.14,-2.14 -7.6,-4.992 -10.3,-8.5 -2.73,-3.531 -4.77,-7.492 -6.11,-11.89 -1.37,-4.391 -2.04,-8.828 -2.04,-13.309 z m -29.28,0 c 0,9.117 1.64,17.399 4.92,24.828 3.28,7.442 7.71,13.789 13.33,19.082 5.59,5.27 12.2,9.34 19.9,12.231 7.67,2.879 15.82,4.316 24.45,4.316 8.64,0 16.82,-1.437 24.49,-4.316 7.66,-2.891 14.31,-6.961 19.91,-12.231 5.6,-5.293 10.05,-11.64 13.32,-19.082 3.27,-7.429 4.91,-15.711 4.91,-24.828 0,-9.121 -1.64,-17.4296 -4.91,-24.9491 -3.27,-7.5235 -7.72,-13.9531 -13.32,-19.3203 -5.6,-5.3633 -12.25,-9.5508 -19.91,-12.5821 -7.67,-3.039 -15.85,-4.5586 -24.49,-4.5586 -8.63,0 -16.78,1.5196 -24.45,4.5586 -7.7,3.0313 -14.31,7.2188 -19.9,12.5821 -5.62,5.3672 -10.05,11.7968 -13.33,19.3203 -3.28,7.5195 -4.92,15.8281 -4.92,24.9491" />
        <path
           inkscape:connector-curvature="0"
           id="path861"
           style="fill:#36449f;fill-opacity:1;fill-rule:nonzero;stroke:none"
           d="m 1693.89,140.82 c -2.24,3.18 -5.6,5.871 -10.08,8.032 -4.48,2.16 -9.04,3.238 -13.66,3.238 -5.29,0 -9.93,-1.078 -13.93,-3.238 -4,-2.161 -7.31,-5 -9.96,-8.524 -2.63,-3.519 -4.6,-7.476 -5.86,-11.879 -1.29,-4.39 -1.94,-8.82 -1.94,-13.32 0,-4.469 0.69,-8.91 2.04,-13.309 1.37,-4.3903 3.4,-8.3512 6.13,-11.8591 2.71,-3.5312 6.11,-6.3711 10.19,-8.539 4.07,-2.1524 8.83,-3.2305 14.27,-3.2305 4.49,0 8.98,0.8867 13.43,2.6484 4.48,1.7618 8.1,4.3086 10.8,7.6719 l 18.01,-18.2304 c -4.81,-5.1211 -10.92,-9.0821 -18.35,-11.8829 -7.44,-2.789 -15.5,-4.1875 -24.13,-4.1875 -8.47,0 -16.52,1.3594 -24.1,4.0782 -7.6,2.6992 -14.23,6.7226 -19.91,11.9922 -5.7,5.2695 -10.16,11.6679 -13.43,19.1875 -3.28,7.5195 -4.93,16.0702 -4.93,25.6602 0,9.293 1.65,17.68 4.93,25.199 3.27,7.524 7.69,13.91 13.29,19.203 5.61,5.27 12.13,9.34 19.56,12.231 7.44,2.879 15.4,4.316 23.89,4.316 8.46,0 16.65,-1.598 24.59,-4.797 7.9,-3.211 14.17,-7.601 18.81,-13.203 l -19.66,-17.258" />
        <path
           inkscape:connector-curvature="0"
           id="path863"
           style="fill:#36449f;fill-opacity:1;fill-rule:nonzero;stroke:none"
           d="m 1735.15,172.719 h 28.78 V 57.5703 h -28.78 z m -4.08,39.09 c 0,4.64 1.71,8.679 5.15,12.121 3.45,3.449 7.8,5.16 13.08,5.16 5.28,0 9.72,-1.641 13.33,-4.91 3.58,-3.282 5.38,-7.41 5.38,-12.371 0,-4.957 -1.8,-9.059 -5.38,-12.348 -3.61,-3.281 -8.05,-4.91 -13.33,-4.91 -5.28,0 -9.63,1.719 -13.08,5.16 -3.44,3.43 -5.15,7.469 -5.15,12.098" />
        <path
           inkscape:connector-curvature="0"
           id="path865"
           style="fill:#36449f;fill-opacity:1;fill-rule:nonzero;stroke:none"
           d="m 1874.04,126.648 c 0,3.692 -0.5,7.204 -1.55,10.563 -1.03,3.359 -2.7,6.309 -4.93,8.879 -2.24,2.558 -5.08,4.59 -8.52,6.109 -3.43,1.52 -7.47,2.289 -12.1,2.289 -8.63,0 -15.94,-2.597 -21.96,-7.797 -5.99,-5.211 -9.31,-11.871 -9.93,-20.043 z m 28.8,-12.949 c 0,-1.277 0,-2.558 0,-3.84 0,-1.289 -0.11,-2.558 -0.24,-3.828 h -87.55 c 0.3,-4.16 1.38,-7.9724 3.21,-11.3904 1.86,-3.4492 4.29,-6.4023 7.34,-8.8906 3.03,-2.4687 6.47,-4.4297 10.31,-5.8711 3.82,-1.4492 7.84,-2.168 12,-2.168 7.18,0 13.25,1.3204 18.22,3.9688 4.95,2.6289 9.03,6.2695 12.23,10.9219 l 19.19,-15.3711 c -11.35,-15.3399 -27.83,-23.0196 -49.4,-23.0196 -8.97,0 -17.19,1.3985 -24.71,4.1875 -7.52,2.8008 -14.05,6.7618 -19.56,11.8829 -5.52,5.1171 -9.84,11.3984 -12.95,18.8398 -3.12,7.418 -4.69,15.8669 -4.69,25.3089 0,9.261 1.57,17.711 4.69,25.308 3.11,7.59 7.39,14.063 12.83,19.422 5.44,5.36 11.87,9.512 19.32,12.481 7.43,2.961 15.47,4.437 24.09,4.437 8,0 15.4,-1.328 22.21,-3.957 6.78,-2.641 12.66,-6.57 17.61,-11.762 4.97,-5.187 8.85,-11.668 11.64,-19.429 2.81,-7.758 4.21,-16.828 4.21,-27.231" />
        <path
           inkscape:connector-curvature="0"
           id="path867"
           style="fill:#36449f;fill-opacity:1;fill-rule:nonzero;stroke:none"
           d="m 1914.11,149.691 v 23.028 h 20.15 v 33.34 h 28.31 v -33.34 h 28.79 v -23.028 h -28.79 V 96.1914 c 0,-5.1328 0.93,-9.3633 2.75,-12.7226 1.84,-3.3594 5.98,-5.0391 12.37,-5.0391 1.92,0 3.99,0.2109 6.24,0.6016 2.24,0.4101 4.22,1.0078 5.98,1.8085 l 0.97,-22.5507 c -2.55,-0.9688 -5.6,-1.7188 -9.11,-2.2891 -3.53,-0.5508 -6.9,-0.8398 -10.09,-0.8398 -7.68,0 -13.92,1.0781 -18.7,3.2382 -4.81,2.1602 -8.6,5.1211 -11.41,8.8829 -2.79,3.7578 -4.7,8.0781 -5.74,12.957 -1.04,4.8711 -1.57,10.1211 -1.57,15.7031 v 53.7496 h -20.15" />
        <path
           inkscape:connector-curvature="0"
           id="path869"
           style="fill:#36449f;fill-opacity:1;fill-rule:nonzero;stroke:none"
           d="m 2006.96,172.719 h 31.91 l 32.14,-83.7385 h 0.47 l 28.56,83.7385 h 29.99 L 2075.58,32.8594 c -2.08,-5.2813 -4.32,-9.9492 -6.72,-14.0391 -2.4,-4.082 -5.28,-7.5 -8.65,-10.3203 -3.35,-2.78906 -7.31,-4.91016 -11.88,-6.35156 C 2043.78,0.710938 2038.29,0 2031.9,0 c -2.39,0 -4.83,0.101563 -7.31,0.351563 -2.49,0.226562 -4.99,0.679687 -7.56,1.320317 l 2.4,24.95702 c 1.92,-0.6601 3.78,-1.0898 5.64,-1.3281 1.83,-0.2305 3.55,-0.3594 5.15,-0.3594 3.04,0 5.61,0.3594 7.69,1.0703 2.08,0.7383 3.83,1.8594 5.27,3.3672 1.45,1.5195 2.71,3.3906 3.83,5.6406 1.12,2.2305 2.33,4.8789 3.61,7.9102 l 5.77,14.6406 -49.43,115.1487" />
      </g>
    </g>
  </g>
</svg>
