<?xml version="1.0" encoding="UTF-8" standalone="no"?>
<svg
   xmlns:dc="http://purl.org/dc/elements/1.1/"
   xmlns:cc="http://creativecommons.org/ns#"
   xmlns:rdf="http://www.w3.org/1999/02/22-rdf-syntax-ns#"
   xmlns:svg="http://www.w3.org/2000/svg"
   xmlns="http://www.w3.org/2000/svg"
   xmlns:sodipodi="http://sodipodi.sourceforge.net/DTD/sodipodi-0.dtd"
   xmlns:inkscape="http://www.inkscape.org/namespaces/inkscape"
   id="Layer_1"
   style="enable-background:new 0 0 128 128;"
   version="1.1"
   viewBox="0 0 128 128"
   xml:space="preserve"
   sodipodi:docname="sourcecode_icon.svg"
   inkscape:version="0.92.2 (5c3e80d, 2017-08-06)"><metadata
     id="metadata39"><rdf:RDF><cc:Work
         rdf:about=""><dc:format>image/svg+xml</dc:format><dc:type
           rdf:resource="http://purl.org/dc/dcmitype/StillImage" /></cc:Work></rdf:RDF></metadata><defs
     id="defs37" /><sodipodi:namedview
     pagecolor="#ffffff"
     bordercolor="#666666"
     borderopacity="1"
     objecttolerance="10"
     gridtolerance="10"
     guidetolerance="10"
     inkscape:pageopacity="0"
     inkscape:pageshadow="2"
     inkscape:window-width="1795"
     inkscape:window-height="1057"
     id="namedview35"
     showgrid="false"
     inkscape:zoom="2.6074563"
     inkscape:cx="117.62073"
     inkscape:cy="107.53321"
     inkscape:window-x="2037"
     inkscape:window-y="-8"
     inkscape:window-maximized="1"
     inkscape:current-layer="Layer_1" /><style
     type="text/css"
     id="style2">
	.st0{fill:#313C42;}
</style><rect
     style="color:#000000;clip-rule:nonzero;display:inline;overflow:visible;visibility:visible;opacity:1;isolation:auto;mix-blend-mode:normal;color-interpolation:sRGB;color-interpolation-filters:linearRGB;solid-color:#000000;solid-opacity:1;vector-effect:none;fill:#000000;fill-opacity:1;fill-rule:nonzero;stroke:#000000;stroke-width:1;stroke-linecap:butt;stroke-linejoin:miter;stroke-miterlimit:4;stroke-dasharray:none;stroke-dashoffset:0;stroke-opacity:1;color-rendering:auto;image-rendering:auto;shape-rendering:auto;text-rendering:auto;enable-background:accumulate"
     id="rect872"
     width="98.599998"
     height="64.5"
     x="14.7"
     y="14.8" /><g
     id="g6"><path
       style="fill:#313c42"
       inkscape:connector-curvature="0"
       id="path4"
       d="M 125.5,93.6 H 2.5 c -1.1,0 -2,-0.9 -2,-2 V 2.5 c 0,-1.1 0.9,-2 2,-2 h 123 c 1.1,0 2,0.9 2,2 v 89.1 c 0,1.1 -0.9,2 -2,2 z m -121,-4 h 119 V 4.5 H 4.5 Z"
       class="st0" /></g><g
     id="g10"><path
       style="fill:#313c42"
       inkscape:connector-curvature="0"
       id="path8"
       d="m 100.5,127.5 h -73 c -1.1,0 -2,-0.9 -2,-2 v -13.2 c 0,-1.1 0.9,-2 2,-2 h 73 c 1.1,0 2,0.9 2,2 v 13.2 c 0,1.1 -0.9,2 -2,2 z m -71,-4 h 69 v -9.2 h -69 z"
       class="st0" /></g><g
     id="g14"><path
       style="fill:#313c42"
       inkscape:connector-curvature="0"
       id="path12"
       d="M 90.8,114.3 H 37.2 c -1.1,0 -2,-0.9 -2,-2 V 91.6 c 0,-1.1 0.9,-2 2,-2 h 53.7 c 1.1,0 2,0.9 2,2 v 20.8 c -0.1,1.1 -1,1.9 -2.1,1.9 z m -51.6,-4 H 88.9 V 93.6 H 39.2 Z"
       class="st0" /></g><g
     id="g18"><path
       style="fill:#313c42"
       inkscape:connector-curvature="0"
       id="path16"
       d="M 114.3,81.3 H 13.7 c -0.6,0 -1,-0.4 -1,-1 V 13.8 c 0,-0.6 0.4,-1 1,-1 h 100.6 c 0.6,0 1,0.4 1,1 v 66.5 c 0,0.5 -0.4,1 -1,1 z m -99.6,-2 h 98.6 V 14.8 H 14.7 Z"
       class="st0" /></g><path
     style="color:#000000;clip-rule:nonzero;display:inline;overflow:visible;visibility:visible;opacity:1;isolation:auto;mix-blend-mode:normal;color-interpolation:sRGB;color-interpolation-filters:linearRGB;solid-color:#000000;solid-opacity:1;vector-effect:none;fill:#00ba00;fill-opacity:1;fill-rule:nonzero;stroke:#000000;stroke-width:0.09587888;stroke-linecap:butt;stroke-linejoin:miter;stroke-miterlimit:4;stroke-dasharray:none;stroke-dashoffset:0;stroke-opacity:1;color-rendering:auto;image-rendering:auto;shape-rendering:auto;text-rendering:auto;enable-background:accumulate"
     d="m 36.97918,52.366405 c -5.427691,-2.501068 -9.904688,-4.547396 -9.948882,-4.547396 -0.04419,0 -0.06892,-1.257359 -0.05494,-2.794131 l 0.02542,-2.794131 9.971404,-4.64065 c 5.484272,-2.552357 10.01455,-4.649561 10.067283,-4.660452 0.06199,-0.0128 0.09588,0.871309 0.09588,2.50138 v 2.521183 l -6.663583,3.022148 c -4.878256,2.212445 -6.734225,3.097923 -6.927249,3.304972 -0.182596,0.195862 -0.263667,0.385075 -0.263667,0.615375 0,0.229593 0.08163,0.421015 0.263667,0.618291 0.192991,0.209148 2.056261,1.112963 6.951219,3.371824 l 6.687552,3.086083 v 2.478301 c 0,2.298978 -0.01214,2.477805 -0.167788,2.47145 -0.09228,-0.0038 -4.608625,-2.05318 -10.036316,-4.554247 z"
     id="path874"
     inkscape:connector-curvature="0" /><path
     style="color:#000000;clip-rule:nonzero;display:inline;overflow:visible;visibility:visible;opacity:1;isolation:auto;mix-blend-mode:normal;color-interpolation:sRGB;color-interpolation-filters:linearRGB;solid-color:#000000;solid-opacity:1;vector-effect:none;fill:#00ba00;fill-opacity:1;fill-rule:nonzero;stroke:#000000;stroke-width:0.09587888;stroke-linecap:butt;stroke-linejoin:miter;stroke-miterlimit:4;stroke-dasharray:none;stroke-dashoffset:0;stroke-opacity:1;color-rendering:auto;image-rendering:auto;shape-rendering:auto;text-rendering:auto;enable-background:accumulate"
     d="m 80.763225,54.199326 0.02561,-2.462153 6.69279,-3.09356 c 3.681035,-1.701459 6.787511,-3.188281 6.90328,-3.30405 0.308709,-0.308709 0.293521,-0.982999 -0.02921,-1.296727 -0.131833,-0.128156 -3.238309,-1.594138 -6.90328,-3.257736 l -6.663582,-3.024724 -0.0198,-2.593055 c -0.01089,-1.42618 -0.01089,-2.592797 0,-2.592481 0.01089,3.16e-4 4.55008,2.108536 10.087086,4.684934 l 10.067281,4.68436 v 2.756851 2.756853 l -9.875523,4.545192 c -5.431539,2.499856 -9.973341,4.570675 -10.092894,4.60182 l -0.217368,0.05663 z"
     id="path876"
     inkscape:connector-curvature="0" /><path
     style="color:#000000;clip-rule:nonzero;display:inline;overflow:visible;visibility:visible;opacity:1;isolation:auto;mix-blend-mode:normal;color-interpolation:sRGB;color-interpolation-filters:linearRGB;solid-color:#000000;solid-opacity:1;vector-effect:none;fill:#00ba00;fill-opacity:1;fill-rule:nonzero;stroke:#000000;stroke-width:0.09587888;stroke-linecap:butt;stroke-linejoin:miter;stroke-miterlimit:4;stroke-dasharray:none;stroke-dashoffset:0;stroke-opacity:1;color-rendering:auto;image-rendering:auto;shape-rendering:auto;text-rendering:auto;enable-background:accumulate"
     d="m 51.461884,66.822426 c -0.02723,-0.04406 4.100898,-8.974801 9.173623,-19.846086 l 9.223135,-19.765973 2.133305,-0.0027 c 1.970837,-0.0025 2.132894,0.01012 2.127903,0.165128 -0.003,0.09228 -4.138256,9.012616 -9.189521,19.82296 l -9.184118,19.655172 -2.117407,0.02578 c -1.164574,0.01418 -2.139688,-0.01026 -2.16692,-0.05433 z"
     id="path878"
     inkscape:connector-curvature="0" /></svg>