<?xml version="1.0" ?><svg id="Layer_1" style="enable-background:new 0 0 128 128;" version="1.1" viewBox="0 0 128 128" xml:space="preserve" xmlns="http://www.w3.org/2000/svg" xmlns:xlink="http://www.w3.org/1999/xlink"><style type="text/css">
	.st0{fill:#313C42;}
</style><g><g><path class="st0" d="M125.5,93.6H2.5c-1.1,0-2-0.9-2-2V2.5c0-1.1,0.9-2,2-2h123c1.1,0,2,0.9,2,2v89.1    C127.5,92.7,126.6,93.6,125.5,93.6z M4.5,89.6h119V4.5H4.5V89.6z"/></g><g><path class="st0" d="M100.5,127.5h-73c-1.1,0-2-0.9-2-2v-13.2c0-1.1,0.9-2,2-2h73c1.1,0,2,0.9,2,2v13.2    C102.5,126.6,101.6,127.5,100.5,127.5z M29.5,123.5h69v-9.2h-69V123.5z"/></g><g><path class="st0" d="M90.8,114.3H37.2c-1.1,0-2-0.9-2-2V91.6c0-1.1,0.9-2,2-2h53.7c1.1,0,2,0.9,2,2v20.8    C92.8,113.5,91.9,114.3,90.8,114.3z M39.2,110.3h49.7V93.6H39.2V110.3z"/></g><g><path class="st0" d="M114.3,81.3H13.7c-0.6,0-1-0.4-1-1V13.8c0-0.6,0.4-1,1-1h100.6c0.6,0,1,0.4,1,1v66.5    C115.3,80.8,114.9,81.3,114.3,81.3z M14.7,79.3h98.6V14.8H14.7V79.3z"/></g><g><path class="st0" d="M47.1,58.9c-0.3,0-0.6-0.1-0.9-0.2l-20-9.2c-0.7-0.3-1.2-1.1-1.2-1.9v-5.4c0-0.8,0.5-1.6,1.2-1.9l20-9.3    c0.6-0.3,1.4-0.2,2,0.1c0.6,0.4,1,1.1,1,1.8v4.8c0,0.8-0.5,1.6-1.2,1.9l-11.2,5.1L48,50c0.7,0.3,1.2,1.1,1.2,1.9v4.8    c0,0.7-0.4,1.4-1,1.8C47.9,58.8,47.5,58.9,47.1,58.9z M46.6,32l0.4,0.9l-20,9.3c0,0-0.1,0.1-0.1,0.1v5.4c0,0,0,0.1,0.1,0.1l20,9.2    c0,0,0,0,0.1,0c0,0,0.1-0.1,0.1-0.1V52c0,0,0-0.1-0.1-0.1l-13.2-6.1c-0.4-0.2-0.6-0.5-0.6-0.9c0-0.4,0.2-0.7,0.6-0.9l13.2-6    c0,0,0.1-0.1,0.1-0.1V33c0,0,0-0.1-0.1-0.1L46.6,32z"/></g><g><path class="st0" d="M55.7,68.8h-4.2c-0.7,0-1.4-0.4-1.8-1c-0.4-0.6-0.4-1.4-0.1-2L68,26.4c0.3-0.7,1.1-1.2,1.9-1.2h4.2    c0.7,0,1.4,0.4,1.8,1c0.4,0.6,0.4,1.4,0.1,2L57.7,67.6C57.3,68.4,56.6,68.8,55.7,68.8z M69.9,27.2c0,0-0.1,0-0.1,0.1L51.4,66.7    c0,0,0,0.1,0,0.1c0,0,0.1,0.1,0.1,0.1h4.2c0,0,0.1,0,0.1-0.1l18.4-39.4c0,0,0-0.1,0-0.1c0,0-0.1-0.1-0.1-0.1H69.9z"/></g><g><path class="st0" d="M80.9,58.9c-0.4,0-0.8-0.1-1.1-0.3c-0.6-0.4-1-1.1-1-1.8V52c0-0.8,0.5-1.6,1.2-1.9l11.3-5.2l-11.2-5.1    c-0.8-0.3-1.2-1.1-1.2-1.9V33c0-0.7,0.4-1.4,1-1.8c0.6-0.4,1.4-0.4,2-0.1l20,9.3c0.7,0.3,1.2,1.1,1.2,1.9v5.4    c0,0.8-0.5,1.6-1.2,1.9l-20,9.2C81.5,58.8,81.2,58.9,80.9,58.9z M80.3,32l0.5,0.8c0,0-0.1,0.1-0.1,0.1v4.8c0,0,0,0.1,0.1,0.1    l13.2,6c0.4,0.2,0.6,0.5,0.6,0.9c0,0.4-0.2,0.7-0.6,0.9l-13.2,6.1c0,0-0.1,0.1-0.1,0.1v4.8c0,0,0,0.1,0.1,0.1l0.1,0c0,0,0,0,0,0    l20-9.2c0,0,0.1-0.1,0.1-0.1v-5.4c0,0,0-0.1-0.1-0.1l-20-9.3L80.3,32z"/></g></g></svg>