<?xml version="1.0" ?><svg viewBox="0 0 100 100" xmlns="http://www.w3.org/2000/svg"><path d="M93.3 29c-4.6-.8-7.2-2.7-10-4.8-3.3-2.5-7.1-5.2-14.3-6-1-.1-2-.2-2.9-.2-8.3 0-13.6 3.8-16.1 6.1-2.5-2.3-7.8-6.1-16.1-6.1-1 0-1.9.1-2.9.2-7.2.8-10.9 3.6-14.3 6-2.8 2.1-5.4 4-10 4.8-1 .2-1.7 1-1.7 2v49c0 .6.3 1.1.7 1.5.4.3.8.5 1.3.5h.3c5.5-.9 8.7-3.3 11.7-5.5 3.2-2.4 6.3-4.6 12.3-5.3.8-.1 1.7-.1 2.5-.1 9.5 0 14.3 5.9 14.5 6.2l.2.2.2.2c.1.1.2.1.3.2.1 0 .1.1.2.1s.2 0 .3.1h.6c.1 0 .2 0 .3-.1.1 0 .1-.1.2-.1s.2-.1.3-.2c.1-.1.2-.1.2-.2l.2-.2c0-.1 4.9-6.2 14.5-6.2.8 0 1.7 0 2.5.1 6.1.6 9.1 2.9 12.3 5.3C84 78.7 87.1 81 92.7 82h.3c.5 0 .9-.2 1.3-.5.4-.4.7-.9.7-1.5V30.9c0-1-.7-1.8-1.7-1.9zM33.9 67.1c-1 0-1.9.1-2.9.2-7.2.8-10.9 3.6-14.3 6-2.3 1.7-4.5 3.3-7.7 4.2V32.6c4.5-1.1 7.3-3.2 10.1-5.2 3.2-2.4 6.3-4.6 12.3-5.3.8-.1 1.7-.1 2.5-.1 8 0 12.7 4.2 14.1 5.7v43.8c-2.9-2.1-7.6-4.4-14.1-4.4zM91 77.5c-3.2-1-5.4-2.6-7.7-4.2-3.3-2.5-7.1-5.2-14.3-6-1-.1-2-.2-2.9-.2-6.5 0-11.2 2.3-14.1 4.4V27.7c1.4-1.4 6.1-5.7 14.1-5.7.8 0 1.7 0 2.5.1 6.1.6 9.1 2.9 12.3 5.3 2.7 2 5.5 4.1 10.1 5.2v44.9z" fill="#010101"/><path d="M15.9 39.2c.4 0 .8-.1 1.1-.4.7-.5 1.3-.9 2-1.4 3.2-2.4 6.3-4.6 12.3-5.3 3.1-.3 6.1 0 8.9.8 1.1.3 2.2-.2 2.5-1.3.3-1.1-.2-2.2-1.3-2.5-3.3-1.1-6.8-1.4-10.5-1-7.2.8-10.9 3.6-14.3 6-.6.5-1.2.9-1.9 1.4-.9.6-1.1 1.9-.5 2.8.5.6 1.1.9 1.7.9zM41.5 38.8c-3.3-1.1-6.8-1.4-10.5-1-7.2.8-10.9 3.6-14.3 6-.6.5-1.2.9-1.9 1.4-.9.6-1.1 1.9-.5 2.8.4.6 1 .9 1.6.9.4 0 .8-.1 1.1-.4.7-.5 1.3-.9 2-1.4 3.2-2.4 6.3-4.6 12.3-5.3 3.1-.3 6.1 0 8.9.8 1 .3 2.2-.2 2.5-1.3.4-1-.2-2.2-1.2-2.5zM41.5 48.5c-3.3-1.1-6.8-1.4-10.5-1-7.2.8-10.9 3.6-14.3 6-.6.5-1.2.9-1.9 1.4-.9.6-1.1 1.9-.5 2.8.4.6 1 .9 1.6.9.4 0 .8-.1 1.1-.4.7-.5 1.3-.9 2-1.4 3.2-2.4 6.3-4.6 12.3-5.3 3.1-.3 6.1 0 8.9.8 1.1.3 2.2-.2 2.5-1.3.4-1-.2-2.2-1.2-2.5zM41.5 58.5c-3.3-1.1-6.8-1.4-10.5-1-7.2.8-10.9 3.6-14.3 6-.6.5-1.2.9-1.9 1.4-.9.6-1.1 1.9-.5 2.8.4.6 1 .9 1.6.9.4 0 .8-.1 1.1-.4.7-.5 1.3-.9 2-1.4 3.2-2.4 6.3-4.6 12.3-5.3 3.1-.3 6.1 0 8.9.8 1.1.3 2.2-.2 2.5-1.3.4-1-.2-2.2-1.2-2.5zM58.5 29.2c-1.1.3-1.6 1.5-1.3 2.5.3 1.1 1.5 1.6 2.5 1.3 2.8-.9 5.8-1.2 8.9-.8 6.1.6 9.1 2.9 12.3 5.3.7.5 1.3 1 2 1.4.3.2.7.4 1.1.4.6 0 1.3-.3 1.6-.9.6-.9.4-2.2-.5-2.8-.6-.4-1.3-.9-1.9-1.4-3.3-2.5-7.1-5.2-14.3-6-3.5-.4-7.1-.1-10.4 1zM85.2 45.1c-.6-.4-1.3-.9-1.9-1.4-3.3-2.5-7.1-5.2-14.3-6-3.7-.4-7.2 0-10.5 1-1.1.3-1.6 1.5-1.3 2.5.3 1.1 1.5 1.6 2.5 1.3 2.8-.9 5.8-1.2 8.9-.8 6.1.6 9.1 2.9 12.3 5.3.7.5 1.3 1 2 1.4.3.2.7.4 1.1.4.6 0 1.3-.3 1.6-.9.7-.9.5-2.1-.4-2.8zM85.2 54.8c-.6-.4-1.3-.9-1.9-1.4-3.3-2.5-7.1-5.2-14.3-6-3.7-.4-7.2 0-10.5 1-1.1.3-1.6 1.5-1.3 2.5.3 1.1 1.5 1.6 2.5 1.3 2.8-.9 5.8-1.2 8.9-.8 6.1.6 9.1 2.9 12.3 5.3.7.5 1.3 1 2 1.4.3.2.7.4 1.1.4.6 0 1.3-.3 1.6-.9.7-.9.5-2.1-.4-2.8zM85.2 64.8c-.6-.4-1.3-.9-1.9-1.4-3.3-2.5-7.1-5.2-14.3-6-3.7-.4-7.2 0-10.5 1-1.1.3-1.6 1.5-1.3 2.5.3 1.1 1.5 1.6 2.5 1.3 2.8-.9 5.8-1.2 8.9-.8 6.1.6 9.1 2.9 12.3 5.3.7.5 1.3 1 2 1.4.3.2.7.4 1.1.4.6 0 1.3-.3 1.6-.9.7-.9.5-2.1-.4-2.8z" fill="#010101"/></svg>